Coordinates
version=1
nRows=10
nColumns=63
inDegrees=yes

Units are S.I. units (second, meters, Newtons, ...)
If the header above contains a line with 'inDegrees', this indicates whether rotational values are in degrees (yes) or radians (no).

endheader
time	pelvis_tilt	pelvis_list	pelvis_rotation	pelvis_tx	pelvis_ty	pelvis_tz	hip_flexion_r	hip_adduction_r	hip_rotation_r	knee_angle_r	knee_angle_r_beta	ankle_angle_r	subtalar_angle_r	mtp_angle_r	hip_flexion_l	hip_adduction_l	hip_rotation_l	knee_angle_l	knee_angle_l_beta	ankle_angle_l	subtalar_angle_l	mtp_angle_l	L5_S1_Flex_Ext	L5_S1_Lat_Bending	L5_S1_axial_rotation	L4_L5_Flex_Ext	L4_L5_Lat_Bending	L4_L5_axial_rotation	L3_L4_Flex_Ext	L3_L4_Lat_Bending	L3_L4_axial_rotation	L2_L3_Flex_Ext	L2_L3_Lat_Bending	L2_L3_axial_rotation	L1_L2_Flex_Ext	L1_L2_Lat_Bending	L1_L2_axial_rotation	L1_T12_Flex_Ext	L1_T12_Lat_Bending	L1_T12_axial_rotation	Abs_r3	Abs_r2	Abs_r1	Abs_t1	Abs_t2	neck_flexion	neck_bending	neck_rotation	arm_flex_r	arm_add_r	arm_rot_r	elbow_flex_r	pro_sup_r	wrist_flex_r	wrist_dev_r	arm_flex_l	arm_add_l	arm_rot_l	elbow_flex_l	pro_sup_l	wrist_flex_l	wrist_dev_l
      3.23728814	     -1.31255535	      0.74530619	     85.69030110	      0.08268044	      0.93037007	      0.39177424	      4.75869837	     -1.84188512	    -19.80116698	     11.92611720	      0.20815001	     18.34194348	     14.15958547	      0.00000000	      3.90188771	      2.23839399	      1.45580261	      6.91737966	      0.12073105	      8.87696531	    -11.24070712	      0.00000000	     -0.28633004	      0.09516748	     -0.12666657	     -0.53174351	      0.12657275	     -0.13458323	     -0.47041162	      0.23139022	     -0.13458323	     -0.32724660	      0.23139022	     -0.11083325	     -0.26588607	      0.19406553	     -0.10291659	     -0.16360898	      0.14741443	     -0.09499993	     -2.04522682	      1.07655361	     -0.70448145	      0.00000000	      0.00000000	      8.47867796	      3.23056040	      2.21130421	      5.31337562	    -17.72010425	     48.57274113	     34.86328471	     86.30516675	    -10.27935372	     -3.99708402	     10.43871722	     -8.52112441	    166.96117722	      1.50339090	      8.15511498	    -27.52148258	    -13.12660979
      3.25423729	     -1.24497608	      0.64752292	     85.76690514	      0.08241679	      0.93059212	      0.39173005	      4.70425222	     -1.71805149	    -19.77558488	     11.58914969	      0.20226882	     18.21923188	     14.41648692	      0.00000000	      3.99475414	      2.17215482	      1.43177774	      6.92211294	      0.12081366	      9.18460215	    -10.95876090	      0.00000000	     -0.27659168	      0.10464129	     -0.13687325	     -0.51365842	      0.13917292	     -0.14542783	     -0.45441248	      0.25442484	     -0.14542783	     -0.31611663	      0.25442484	     -0.11976410	     -0.25684304	      0.21338453	     -0.11120952	     -0.15804449	      0.16208936	     -0.10265494	     -1.97566674	      1.18372324	     -0.76124797	      0.00000000	      0.00000000	      8.01833544	      2.85207548	      2.24361265	      4.88193347	    -17.84878412	     46.95803410	     35.47231854	     85.78560980	     -9.64125607	     -4.32056641	     10.36392967	     -8.43352461	    165.58552676	      1.54711769	      6.44726671	    -26.09354550	    -14.45273327
      3.27118644	     -1.21965680	      0.56221569	     85.76616797	      0.08237024	      0.93088805	      0.39172528	      4.63432473	     -1.62361771	    -19.78447588	     11.21377728	      0.19571734	     18.04905765	     14.74428127	      0.00000000	      4.05090872	      2.14206489	      1.12679820	      6.89004227	      0.12025392	      9.43098869	    -10.49164245	      0.00000000	     -0.27125374	      0.10801814	     -0.13320415	     -0.50374532	      0.14366413	     -0.14152941	     -0.44564277	      0.26263531	     -0.14152941	     -0.31001590	      0.26263531	     -0.11655363	     -0.25188622	      0.22027060	     -0.10822838	     -0.15499439	      0.16732010	     -0.09990312	     -1.93753835	      1.22192284	     -0.74084154	      0.00000000	      0.00000000	      7.68293064	      2.36905623	      2.14562236	      4.53820827	    -17.90004677	     45.34068633	     35.95422812	     84.96238656	     -8.92521288	     -4.91218398	     10.36088180	     -8.45142895	    163.18094982	      1.73574672	      5.20615163	    -24.07775895	    -16.49352128
      3.28813559	     -1.16152923	      0.49019718	     85.74768825	      0.08227304	      0.93113493	      0.39176270	      4.53327762	     -1.49370843	    -19.80172901	     10.80987714	      0.18866795	     17.84279903	     15.06337456	      0.00000000	      4.10082280	      2.08320280	      0.84734418	      6.88296345	      0.12013037	      9.69193629	    -10.04817526	      0.00000000	     -0.26763672	      0.11451764	     -0.12152710	     -0.49702816	      0.15230846	     -0.12912254	     -0.43970037	      0.27843818	     -0.12912254	     -0.30588201	      0.27843818	     -0.10633621	     -0.24852746	      0.23352436	     -0.09874077	     -0.15292762	      0.17738782	     -0.09114532	     -1.91170236	      1.29544641	     -0.67589725	      0.00000000	      0.00000000	      7.42842775	      2.03717852	      1.88677149	      4.19961340	    -17.97536654	     43.75807709	     36.47550939	     84.22753363	     -8.49665484	     -5.54398872	     10.37478409	     -8.42964877	    161.08575675	      1.88813361	      4.56373405	    -22.64696703	    -17.83250923
      3.30508475	     -1.12459362	      0.44119862	     85.68366549	      0.08244113	      0.93135948	      0.39181696	      4.34660075	     -1.37938446	    -20.08035252	     10.31810452	      0.18008490	     17.51412829	     15.62216712	      0.00000000	      4.15117479	      2.01807984	      0.37554473	      6.91463723	      0.12068319	      9.85828725	     -9.43863864	      0.00000000	     -0.26246818	      0.11712418	     -0.12306472	     -0.48742966	      0.15577515	     -0.13075626	     -0.43120898	      0.28477572	     -0.13075626	     -0.29997488	      0.28477572	     -0.10768163	     -0.24372795	      0.23883962	     -0.09999008	     -0.14997432	      0.18142535	     -0.09229854	     -1.87478398	      1.32493210	     -0.68444905	      0.00000000	      0.00000000	      7.17693973	      1.83920528	      1.81801623	      3.90406505	    -17.89811204	     42.06276558	     36.88292270	     83.86967628	     -7.88351239	     -5.81419106	     10.34209039	     -8.48787975	    157.70847241	      2.15817942	      5.42007207	    -21.99532840	    -19.19684425
      3.32203390	     -1.14645766	      0.44790393	     85.54003313	      0.08284273	      0.93150141	      0.39201708	      4.12526788	     -1.29812353	    -19.96635165	      9.83726691	      0.17169270	     17.17375297	     15.74291944	      0.00000000	      4.11971242	      2.05327025	      0.60336158	      6.87266343	      0.11995061	      9.54481583	    -10.06645324	      0.00000000	     -0.26505673	      0.10906260	     -0.07940903	     -0.49223685	      0.14505326	     -0.08437209	     -0.43546170	      0.26517481	     -0.08437209	     -0.30293334	      0.26517481	     -0.06948290	     -0.24613168	      0.22240046	     -0.06451983	     -0.15145341	      0.16893797	     -0.05955677	     -1.89327371	      1.23373799	     -0.44164919	      0.00000000	      0.00000000	      6.96865778	      1.72122378	      1.38237025	      3.69370257	    -17.81828885	     41.02683340	     37.11038526	     82.47209940	     -7.37434286	     -6.17238312	     10.39823704	     -8.53623576	    157.55330947	      2.21508811	      4.78434276	    -22.58296069	    -19.87671077
      3.33898305	     -1.20925604	      0.47969980	     85.40373762	      0.08337532	      0.93155507	      0.39229531	      3.87976838	     -1.26935083	    -20.06176468	      9.37097871	      0.16355443	     16.84503916	     16.05060191	      0.00000000	      4.10773008	      2.10083118	      0.54971828	      6.90589362	      0.12053058	      9.30943182	    -10.29022195	      0.00000000	     -0.27040662	      0.09337691	     -0.01674187	     -0.50217213	      0.12419128	     -0.01778824	     -0.44425103	      0.22703661	     -0.01778824	     -0.30904772	      0.22703661	     -0.01464914	     -0.25109959	      0.19041418	     -0.01360277	     -0.15451034	      0.14464083	     -0.01255641	     -1.93148743	      1.05629823	     -0.09311328	      0.00000000	      0.00000000	      6.72784911	      1.69853498	      0.79729545	      3.48892696	    -17.65125487	     40.17581856	     37.16422459	     81.08490683	     -6.76900875	     -6.18102398	     10.55440248	     -8.60278086	    157.29357953	      2.32069568	      4.75652088	    -23.69882716	    -20.46518583
      3.35593220	     -1.24256595	      0.52483897	     85.40364199	      0.08361403	      0.93152034	      0.39260336	      3.59386068	     -1.23679754	    -20.48025303	      8.89346357	      0.15522022	     16.61297699	     16.60451629	      0.00000000	      4.07264920	      2.17162428	      1.31513405	      6.89107796	      0.12027200	      8.87489504	    -11.47111371	      0.00000000	     -0.28000379	      0.08289617	      0.04916701	     -0.51999504	      0.11025190	      0.05223994	     -0.46001823	      0.20155374	      0.05223994	     -0.32001633	      0.20155374	      0.04302113	     -0.26001152	      0.16904186	      0.03994819	     -0.15999417	      0.12840616	      0.03687525	     -2.00003909	      0.93773802	      0.27345214	      0.00000000	      0.00000000	      6.36494021	      1.48832334	      0.06085311	      3.23517262	    -17.54035119	     39.50698379	     37.24447823	     79.66510248	     -6.32576389	     -5.74383474	     10.90464667	     -8.60915107	    156.13742890	      2.83369433	      5.51596851	    -25.44633351	    -20.98251986
      3.37288136	     -1.28461919	      0.56193304	     85.33301944	      0.08411937	      0.93146775	      0.39310340	      3.37955717	     -1.17880620	    -20.45960238	      8.48089304	      0.14801951	     16.40009014	     16.65357214	      0.00000000	      4.13162428	      2.15075485	      0.84379886	      7.03870193	      0.12284852	      9.06943218	    -10.84823904	      0.00000000	     -0.29536304	      0.07026196	      0.14648562	     -0.54851871	      0.09344841	      0.15564097	     -0.48525194	      0.17083493	      0.15564097	     -0.33757042	      0.17083493	      0.12817491	     -0.27427412	      0.14327819	      0.11901956	     -0.16877044	      0.10883578	      0.10986421	     -2.10974869	      0.79481736	      0.81470906	      0.00000000	      0.00000000	      5.94891080	      1.06428032	     -0.81022102	      3.05944226	    -17.35861877	     38.98404847	     37.07312672	     77.95054425	     -5.81959824	     -5.44097597	     11.22983915	     -8.56992700	    157.35850314	      2.69496315	      4.77100648	    -25.66650871	    -21.16388595
      3.38983051	     -2.11279080	      0.75659857	     85.60437642	      0.08719564	      0.93002528	      0.39395856	      3.11112049	     -1.80832934	    -20.65769907	      8.25179040	      0.14402091	     17.07202637	     16.66850396	      0.00000000	      4.21053806	      2.76692509	      0.22908933	      7.33657937	      0.12804747	      9.55562349	     -9.55373997	      0.00000000	     -0.34315213	     -0.09118577	      0.12766654	     -0.63726783	     -0.12127707	      0.13564570	     -0.56376464	     -0.22170908	      0.13564570	     -0.39218857	     -0.22170908	      0.11170823	     -0.31865107	     -0.18594602	      0.10372907	     -0.19607713	     -0.14124676	      0.09574991	     -2.45110137	     -1.03151166	      0.71004301	      0.00000000	      0.00000000	      6.02349336	      1.32627904	     -2.15241313	      3.10840012	    -16.10054249	     38.32746272	     36.72178888	     76.71236011	     -5.40395629	     -4.87913002	      7.82001356	    -17.99148924	     67.28992591	     25.53542709	     85.59562601	    -30.51725604	     -9.30599450
